<?xml version="1.0" encoding="UTF-8"?>
<svg version="1.1" xmlns="http://www.w3.org/2000/svg" width="200" height="36">
<path d="M0 0 C3.2586636 1.4264578 5.4024854 3.16704162 7.890625 5.6953125 C8.95410156 6.76845703 8.95410156 6.76845703 10.0390625 7.86328125 C10.76867187 8.60964844 11.49828125 9.35601562 12.25 10.125 C12.99507812 10.87910156 13.74015625 11.63320312 14.5078125 12.41015625 C16.3431342 14.26900772 18.1736191 16.13237005 20 18 C14 24 8 30 2 36 C-1.15204981 34.60652624 -3.26171773 32.97514921 -5.671875 30.5234375 C-6.33574219 29.853125 -6.99960938 29.1828125 -7.68359375 28.4921875 C-8.36550781 27.79351563 -9.04742188 27.09484375 -9.75 26.375 C-10.44738281 25.66859375 -11.14476562 24.9621875 -11.86328125 24.234375 C-13.58012488 22.49401297 -15.29211832 20.74915019 -17 19 C-15.60652624 15.84795019 -13.97514921 13.73828227 -11.5234375 11.328125 C-10.51796875 10.33232422 -10.51796875 10.33232422 -9.4921875 9.31640625 C-8.79351562 8.63449219 -8.09484375 7.95257812 -7.375 7.25 C-6.66859375 6.55261719 -5.9621875 5.85523438 -5.234375 5.13671875 C-3.49401297 3.41987512 -1.74915019 1.70788168 0 0 Z " fill="#0299A5" transform="translate(17,0)"/>
<path d="M0 0 C0.99 0.33 1.98 0.66 3 1 C2.67 1.66 2.34 2.32 2 3 C2.78375 3.061875 3.5675 3.12375 4.375 3.1875 C5.24125 3.455625 6.1075 3.72375 7 4 C8.3125 6.5625 8.3125 6.5625 9 9 C9.99 8.34 10.98 7.68 12 7 C14.26171875 6.8046875 14.26171875 6.8046875 16.6875 6.875 C17.89986328 6.90207031 17.89986328 6.90207031 19.13671875 6.9296875 C20.05904297 6.96449219 20.05904297 6.96449219 21 7 C20.01 7.33 19.02 7.66 18 8 C18.04125 8.94875 18.0825 9.8975 18.125 10.875 C18 14 18 14 16 16 C14.33382885 16.04063832 12.66611905 16.042721 11 16 C10.67 16.33 10.34 16.66 10 17 C5.95745452 17.91818068 2.13579116 18.36982515 -2 18 C-4.97522769 16.10712258 -6.97110991 13.86473565 -9 11 C-7.59155282 7.78475695 -5.89655214 5.67816132 -3.375 3.25 C-2.74335937 2.63640625 -2.11171875 2.0228125 -1.4609375 1.390625 C-0.73777344 0.70226562 -0.73777344 0.70226562 0 0 Z " fill="#0C9BA7" transform="translate(9,8)"/>
<path d="M0 0 C2.475 0.495 2.475 0.495 5 1 C6.19287411 4.87684087 7 7.91621923 7 12 C7.66 12 8.32 12 9 12 C9.2165625 10.1128125 9.2165625 10.1128125 9.4375 8.1875 C9.73748686 5.57332877 10.15813297 3.52560108 11 1 C12.65 1.33 14.3 1.66 16 2 C16.99 4.97 17.98 7.94 19 11 C19.99 7.7 20.98 4.4 22 1 C23.65 0.67 25.3 0.34 27 0 C25.22089072 6.75052102 23.29561809 13.40620337 21 20 C18.6875 20 18.6875 20 16 19 C14.58711853 16.38948072 13.864695 13.86714656 13 11 C12.01 13.97 11.02 16.94 10 20 C8.68 20 7.36 20 6 20 C4.99422987 17.23113877 3.99519853 14.46015896 3 11.6875 C2.71382813 10.90181641 2.42765625 10.11613281 2.1328125 9.30664062 C1.86210938 8.54931641 1.59140625 7.79199219 1.3125 7.01171875 C1.06113281 6.31522217 0.80976562 5.61872559 0.55078125 4.90112305 C0 3 0 3 0 0 Z " fill="#231E1F" transform="translate(63,8)"/>
<path d="M0 0 C5 1 5 1 6.8125 2.9375 C8 5 8 5 8 7 C11.42578949 3.82460444 11.42578949 3.82460444 14 0 C15.65 0 17.3 0 19 0 C19 6.27 19 12.54 19 19 C17.68 19 16.36 19 15 19 C14.67 15.37 14.34 11.74 14 8 C12.68 9.65 11.36 11.3 10 13 C7 12 7 12 5 9 C4.67 12.3 4.34 15.6 4 19 C2.68 19 1.36 19 0 19 C0 12.73 0 6.46 0 0 Z " fill="#221E1F" transform="translate(162,9)"/>
<path d="M0 0 C2.86262257 2.00992648 4.64014872 3.43748788 5.4453125 6.93359375 C5.66317186 10.77518043 5.2331958 12.63465991 3.125 15.9375 C0.39102013 18.5910687 -0.47384331 18.95036258 -4.3125 19.3125 C-8.57536111 18.95124058 -10.01992054 17.98007946 -13 15 C-14.60847182 11.78305636 -14.61309149 8.47862778 -14 5 C-9.52139324 -0.53932942 -6.92988354 -1.64437915 0 0 Z M-8.8125 4.125 C-10.55198782 6.87155972 -10.39769128 8.81846974 -10 12 C-9.08333333 14.08333333 -9.08333333 14.08333333 -7 15 C-3.38537214 14.92421045 -3.38537214 14.92421045 0 14 C1.39935013 11.20129973 1.25265405 9.09501208 1 6 C-0.06345052 4.01970318 -0.06345052 4.01970318 -2 3 C-4.85480169 2.57177975 -6.34492892 2.59340416 -8.8125 4.125 Z " fill="#221E1F" transform="translate(104,9)"/>
<path d="M0 0 C0.66 0.33 1.32 0.66 2 1 C1.67 1.99 1.34 2.98 1 4 C-2.3 4 -5.6 4 -9 4 C-9 6.97 -9 9.94 -9 13 C-6.69 13.66 -4.38 14.32 -2 15 C-2 14.01 -2 13.02 -2 12 C-3.32 11.67 -4.64 11.34 -6 11 C-6 10.01 -6 9.02 -6 8 C-3.36 8 -0.72 8 2 8 C2.08096803 9.45742463 2.13917774 10.91612807 2.1875 12.375 C2.23970703 13.59316406 2.23970703 13.59316406 2.29296875 14.8359375 C2.19628906 15.55007812 2.09960938 16.26421875 2 17 C-1.76875875 19.51250583 -3.53150134 19.53016086 -8 19 C-11.4375 17.0625 -11.4375 17.0625 -14 14 C-15.0945995 9.37928608 -14.63551678 6.05188984 -12.1875 2 C-8.15752374 -1.68454972 -5.10727324 -0.92859513 0 0 Z " fill="#221E1F" transform="translate(156,9)"/>
<path d="M0 0 C1.65 0 3.3 0 5 0 C6.00858422 2.41339796 7.00702673 4.83018675 8 7.25 C8.28617188 7.93191406 8.57234375 8.61382812 8.8671875 9.31640625 C10.29345494 12.81415735 11 15.16900189 11 19 C9.68 19 8.36 19 7 19 C6.67 18.01 6.34 17.02 6 16 C3.69 15.67 1.38 15.34 -1 15 C-1.33 16.32 -1.66 17.64 -2 19 C-3.32 19 -4.64 19 -6 19 C-4.70024676 12.28460827 -2.70071112 6.27980887 0 0 Z M2 5 C1.34 6.98 0.68 8.96 0 11 C1.65 11 3.3 11 5 11 C4.34 9.02 3.68 7.04 3 5 C2.67 5 2.34 5 2 5 Z " fill="#221E1F" transform="translate(189,9)"/>
<path d="M0 0 C1.22589844 0.15275391 1.22589844 0.15275391 2.4765625 0.30859375 C3.41628906 0.43427734 3.41628906 0.43427734 4.375 0.5625 C4.375 1.5525 4.375 2.5425 4.375 3.5625 C1.30177456 4.47308531 -1.42597361 4.65136184 -4.625 4.5625 C-4.955 5.2225 -5.285 5.8825 -5.625 6.5625 C-4.99851562 6.74425781 -4.37203125 6.92601562 -3.7265625 7.11328125 C-2.90929687 7.36464844 -2.09203125 7.61601562 -1.25 7.875 C-0.43789062 8.11863281 0.37421875 8.36226562 1.2109375 8.61328125 C3.375 9.5625 3.375 9.5625 5.375 12.5625 C5.15649085 14.89326432 4.52305187 16.31864986 3.3125 18.3125 C0.25165863 20.28723637 -3.08234377 20.11246881 -6.625 19.5625 C-7.615 18.9025 -8.605 18.2425 -9.625 17.5625 C-9.13 16.0775 -9.13 16.0775 -8.625 14.5625 C-5.655 14.8925 -2.685 15.2225 0.375 15.5625 C0.375 14.5725 0.375 13.5825 0.375 12.5625 C-2.595 11.5725 -5.565 10.5825 -8.625 9.5625 C-9.3125 6.75 -9.3125 6.75 -9.625 3.5625 C-6.89164286 -0.21213605 -4.41732734 -0.56794209 0 0 Z " fill="#221E1F" transform="translate(126.625,8.4375)"/>
<path d="M0 0 C5.28 0 10.56 0 16 0 C16 0.99 16 1.98 16 3 C14.02 3 12.04 3 10 3 C10 8.28 10 13.56 10 19 C8.68 19 7.36 19 6 19 C6 13.72 6 8.44 6 3 C4.02 3 2.04 3 0 3 C0 2.01 0 1.02 0 0 Z " fill="#221F1F" transform="translate(45,9)"/>
<path d="M0 0 C1.65 0 3.3 0 5 0 C5 6.27 5 12.54 5 19 C3.35 19 1.7 19 0 19 C0 12.73 0 6.46 0 0 Z " fill="#231F1F" transform="translate(134,9)"/>
<path d="M0 0 C3.70986572 -0.28783441 7.29998705 -0.45251957 11 0 C13.6875 2.5 13.6875 2.5 15 5 C13.75945552 6.01170618 12.5071298 7.00897797 11.25 8 C10.55390625 8.556875 9.8578125 9.11375 9.140625 9.6875 C7 11 7 11 3 11 C3.66 8.03 4.32 5.06 5 2 C3.35 1.67 1.7 1.34 0 1 C0 0.67 0 0.34 0 0 Z " fill="#129EAA" transform="translate(22,14)"/>
<path d="M0 0 C1.21816406 0.03480469 1.21816406 0.03480469 2.4609375 0.0703125 C3.68683594 0.09738281 3.68683594 0.09738281 4.9375 0.125 C5.87722656 0.15980469 5.87722656 0.15980469 6.8359375 0.1953125 C5.8459375 0.5253125 4.8559375 0.8553125 3.8359375 1.1953125 C3.8978125 2.6184375 3.8978125 2.6184375 3.9609375 4.0703125 C3.8359375 7.1953125 3.8359375 7.1953125 1.8359375 9.1953125 C-0.6640625 9.4453125 -0.6640625 9.4453125 -3.1640625 9.1953125 C-3.8240625 8.5353125 -4.4840625 7.8753125 -5.1640625 7.1953125 C-4.78428356 3.39752315 -4.32156606 0.39003304 0 0 Z " fill="#EEF8F9" transform="translate(23.1640625,14.8046875)"/>
<path d="M0 0 C1.98 0 3.96 0 6 0 C6.33 1.65 6.66 3.3 7 5 C5.35 6.32 3.7 7.64 2 9 C3.65 9.33 5.3 9.66 7 10 C7 10.66 7 11.32 7 12 C4.36 12 1.72 12 -1 12 C-0.8125 9.625 -0.8125 9.625 0 7 C2.5625 5.6875 2.5625 5.6875 5 5 C5 4.01 5 3.02 5 2 C3.02 2.33 1.04 2.66 -1 3 C-0.67 2.01 -0.34 1.02 0 0 Z " fill="#DAF0F2" transform="translate(10,12)"/>
<path d="M0 0 C0.33 2.64 0.66 5.28 1 8 C0.34 7.34 -0.32 6.68 -1 6 C-2.98821313 5.60235737 -4.98944339 5.26224651 -7 5 C-2.25 0 -2.25 0 0 0 Z " fill="#0C909D" transform="translate(18,17)"/>
<path d="M0 0 C1.32 0 2.64 0 4 0 C4 1.65 4 3.3 4 5 C2.68 5.33 1.36 5.66 0 6 C-0.38218767 4.34385343 -0.71395102 2.67542976 -1 1 C-0.67 0.67 -0.34 0.34 0 0 Z " fill="#209CA7" transform="translate(21,17)"/>
<path d="M0 0 C-0.99 0.33 -1.98 0.66 -3 1 C-3 2.98 -3 4.96 -3 7 C-3.66 6.67 -4.32 6.34 -5 6 C-5 4.68 -5 3.36 -5 2 C-5.99 1.67 -6.98 1.34 -8 1 C-5.07175348 0.02391783 -3.04386724 -0.08226668 0 0 Z " fill="#D8EEF0" transform="translate(30,15)"/>
<path d="M0 0 C1.98 0 3.96 0 6 0 C6.33 0.66 6.66 1.32 7 2 C6.34 2.66 5.68 3.32 5 4 C5 3.34 5 2.68 5 2 C3.02 2.33 1.04 2.66 -1 3 C-0.67 2.01 -0.34 1.02 0 0 Z " fill="#CEEBED" transform="translate(10,12)"/>
</svg>
