<?xml version="1.0" encoding="UTF-8"?>
<svg version="1.1" xmlns="http://www.w3.org/2000/svg" width="199" height="66">
<path d="M0 0 C2.3779672 1.43152947 4.58052242 2.90563229 6.73828125 4.6484375 C5.3789104 7.5090266 4.09307656 9.50771449 1.73828125 11.6484375 C-2.26171875 9.6484375 -2.26171875 9.6484375 -4.10546875 8.60546875 C-8.06219555 6.84931283 -12.03255382 7.02706094 -16.26171875 7.6484375 C-20.32786705 9.30223227 -23.30057803 11.56327862 -26.19921875 14.8359375 C-28.05753188 19.75500166 -29.12907843 24.79784529 -27.56640625 29.93359375 C-25.09165079 35.14616922 -22.4813152 38.75206201 -17.01171875 40.9609375 C-11.07603031 42.04914705 -7.08049637 41.75991271 -1.88671875 38.5859375 C-1.02046875 37.9465625 -0.15421875 37.3071875 0.73828125 36.6484375 C1.39828125 36.6484375 2.05828125 36.6484375 2.73828125 36.6484375 C3.06828125 34.6684375 3.39828125 32.6884375 3.73828125 30.6484375 C-1.54171875 30.3184375 -6.82171875 29.9884375 -12.26171875 29.6484375 C-12.26171875 27.0084375 -12.26171875 24.3684375 -12.26171875 21.6484375 C-4.01171875 21.6484375 4.23828125 21.6484375 12.73828125 21.6484375 C12.73828125 31.54141985 12.4494863 37.76919529 6.05078125 45.0234375 C0.56601928 49.97209492 -6.50455871 51.26089377 -13.71484375 50.9921875 C-22.07917572 49.86325926 -28.01540966 46.13326518 -33.26171875 39.6484375 C-34.06609375 38.6790625 -34.87046875 37.7096875 -35.69921875 36.7109375 C-38.79287421 30.73977717 -38.10893213 23.11401328 -37.26171875 16.6484375 C-35.03981776 10.75043455 -31.62325627 6.0484369 -26.26171875 2.6484375 C-25.33359375 1.9059375 -24.40546875 1.1634375 -23.44921875 0.3984375 C-16.81130536 -3.2407694 -6.85955089 -2.84240073 0 0 Z " fill="#4284F3" transform="translate(37.26171875,1.3515625)"/>
<path d="M0 0 C0.76441406 -0.00515625 1.52882812 -0.0103125 2.31640625 -0.015625 C4.4375 0.25 4.4375 0.25 7.4375 2.25 C7.7675 1.92 8.0975 1.59 8.4375 1.25 C11.10808851 1.10884839 13.76182238 1.20752893 16.4375 1.25 C16.53701569 6.08799361 16.60927037 10.92538025 16.65722656 15.76416016 C16.67723571 17.4071695 16.70445213 19.05010859 16.73925781 20.69287109 C16.78825305 23.06625788 16.81057504 25.43869649 16.828125 27.8125 C16.84877014 28.53679199 16.86941528 29.26108398 16.89068604 30.00732422 C16.89356332 36.6749527 14.69914532 41.85911781 10.11328125 46.70703125 C4.90632224 49.70958425 -0.77779578 49.23255381 -6.5625 48.25 C-9.92461274 46.4591504 -12.46733028 44.45131523 -14.5625 41.25 C-14.5625 39.93 -14.5625 38.61 -14.5625 37.25 C-11.65649739 35.99335022 -9.76645416 35.25 -6.5625 35.25 C-6.35625 35.889375 -6.15 36.52875 -5.9375 37.1875 C-4.6838606 39.55195096 -4.6838606 39.55195096 -1.6875 40.0625 C2.01165253 40.32748715 2.01165253 40.32748715 5.4375 39.25 C7.15851535 36.66847698 7.4375 35.40081975 7.4375 32.25 C6.6640625 32.745 6.6640625 32.745 5.875 33.25 C2.43377523 34.66178452 0.14556262 34.68260731 -3.5625 34.25 C-8.90119859 31.69841611 -13.60957382 28.67996176 -15.8125 23.0625 C-16.865512 17.70968902 -16.65230359 13.53339799 -14.25 8.5 C-10.31660213 3.2554695 -6.76362901 -0.04577752 0 0 Z M-5.5625 10.25 C-7.95410945 14.04414652 -7.71501764 16.87306639 -7.09765625 21.1875 C-6.675835 23.40505219 -6.675835 23.40505219 -4.875 25.3125 C-1.7755478 26.56903468 0.11814069 26.79193621 3.4375 26.25 C6.29022289 24.26549712 8.08017017 22.7911791 8.88671875 19.3125 C9.09108658 15.59159599 8.63160248 13.58788209 6.75 10.3125 C2.26021671 6.30809869 -0.89764835 6.59376492 -5.5625 10.25 Z " fill="#4285F4" transform="translate(138.5625,17.75)"/>
<path d="M0 0 C3.76281219 2.45020328 5.34836504 5.39140309 7.1875 9.4375 C7.1875 10.4275 7.1875 11.4175 7.1875 12.4375 C0.5875 15.0775 -6.0125 17.7175 -12.8125 20.4375 C-12.1525 21.4275 -11.4925 22.4175 -10.8125 23.4375 C-5.90811782 24.00955894 -5.90811782 24.00955894 -1.6875 21.8125 C-1.06875 21.35875 -0.45 20.905 0.1875 20.4375 C2.8125 21.1875 2.8125 21.1875 5.1875 22.4375 C5.8475 22.7675 6.5075 23.0975 7.1875 23.4375 C5.13860583 28.28034076 1.89773831 30.33204012 -2.8125 32.4375 C-7.99119202 33.60720457 -12.43534252 32.33690535 -16.98046875 29.74609375 C-21.22293617 26.71575988 -23.41541379 23.80374322 -24.2890625 18.59765625 C-24.57953645 12.53592349 -23.95675584 7.92391637 -20.2890625 2.99609375 C-14.95461939 -2.63470731 -6.81437829 -3.39256602 0 0 Z M-13.8125 8.4375 C-15.15939915 11.00849402 -15.15939915 11.00849402 -15.8125 13.4375 C-10.95286821 12.83004603 -7.0719482 10.70991033 -2.8125 8.4375 C-4.12451173 6.87500191 -4.12451173 6.87500191 -5.8125 5.4375 C-9.48968093 5.4375 -10.88326189 6.25934858 -13.8125 8.4375 Z " fill="#E94335" transform="translate(191.8125,19.5625)"/>
<path d="M0 0 C4.21813373 2.51689747 7.53403068 5.08946447 9.37109375 9.765625 C10.35287 16.83441401 9.8591791 21.63138112 5.99609375 27.640625 C2.09490628 31.64724996 -1.7631275 32.84303847 -7.25390625 33.453125 C-13.02769163 33.20647786 -17.42438072 30.61656968 -21.75390625 26.953125 C-24.63120273 21.54380762 -24.8397151 15.58459573 -23.62890625 9.640625 C-19.00575601 0.39432452 -9.97180374 -4.23759619 0 0 Z M-13.31640625 9.015625 C-15.79717489 11.49639364 -15.66732182 12.45780709 -15.75390625 15.890625 C-15.67284441 19.63027804 -15.61330379 20.64886921 -13.19140625 23.640625 C-9.81276149 25.25649858 -8.01379793 25.63185695 -4.31640625 25.015625 C-1.26780512 23.81059684 -1.26780512 23.81059684 0.68359375 21.015625 C1.56871199 16.38222345 1.62570667 12.44624091 -1.00390625 8.453125 C-5.96848676 5.36703441 -8.59732192 5.57196887 -13.31640625 9.015625 Z " fill="#FBBC05" transform="translate(111.31640625,18.984375)"/>
<path d="M0 0 C4.75865377 2.59806425 7.24787721 5.73686289 9.15234375 10.79296875 C10.3293446 15.8988316 9.56234909 20.27475361 7.45703125 25.01171875 C4.59744521 28.5862013 1.07552573 31.70144921 -3.29296875 33.19921875 C-9.6088293 33.8308048 -14.08367125 32.92014554 -19.29296875 29.19921875 C-22.62246653 26.30505482 -24.07067044 23.66481383 -24.734375 19.2890625 C-24.97070625 13.13682645 -24.63184084 8.88989128 -20.29296875 4.19921875 C-14.42847411 -1.09313007 -7.6006137 -2.65438809 0 0 Z M-10.98046875 7.32421875 C-14.37922172 10.0799644 -16.07253115 11.71913774 -16.73046875 16.13671875 C-16.19216738 19.90482833 -14.91733851 21.49766164 -12.29296875 24.19921875 C-9.48381401 25.60379612 -7.40486341 25.44817032 -4.29296875 25.19921875 C-1.83221515 24.41672783 -1.83221515 24.41672783 -0.29296875 22.19921875 C0.90216699 17.95075678 1.15275082 14.43150225 -0.35546875 10.26171875 C-3.58092508 6.82816846 -6.50592921 5.45115569 -10.98046875 7.32421875 Z " fill="#E94334" transform="translate(76.29296875,18.80078125)"/>
<path d="M0 0 C2.64 0 5.28 0 8 0 C8 16.5 8 33 8 50 C5.36 50 2.72 50 0 50 C0 33.5 0 17 0 0 Z " fill="#34A853" transform="translate(158,1)"/>
<path d="" fill="#EA4335" transform="translate(0,0)"/>
<path d="" fill="#EA4335" transform="translate(0,0)"/>
<path d="" fill="#4285F4" transform="translate(0,0)"/>
</svg>
