<?xml version="1.0" encoding="UTF-8"?>
<svg version="1.1" xmlns="http://www.w3.org/2000/svg" width="200" height="43">
<path d="M0 0 C2.31 0 4.62 0 7 0 C7.79311367 1.72850345 8.5844259 3.45783354 9.375 5.1875 C9.81585938 6.15042969 10.25671875 7.11335937 10.7109375 8.10546875 C11.87321851 10.71531792 12.95924781 13.33975959 14 16 C16.0894988 12.8657518 17.56445886 9.73890554 19.125 6.3125 C19.66382812 5.13300781 20.20265625 3.95351562 20.7578125 2.73828125 C21.16773437 1.83464844 21.57765625 0.93101563 22 0 C24.31 0 26.62 0 29 0 C29 8.91 29 17.82 29 27 C27.02 27 25.04 27 23 27 C22.505 20.565 22.505 20.565 22 14 C20.02 18.29 18.04 22.58 16 27 C14.68 27 13.36 27 12 27 C10.02 22.05 8.04 17.1 6 12 C5.67 16.95 5.34 21.9 5 27 C3.35 27 1.7 27 0 27 C0 18.09 0 9.18 0 0 Z " fill="#737373" transform="translate(55,8)"/>
<path d="M0 0 C6.93 0 13.86 0 21 0 C21 6.93 21 13.86 21 21 C14.07 21 7.14 21 0 21 C0 14.07 0 7.14 0 0 Z " fill="#00A4F0" transform="translate(0,22)"/>
<path d="M0 0 C6.93 0 13.86 0 21 0 C21 6.93 21 13.86 21 21 C14.07 21 7.14 21 0 21 C0 14.07 0 7.14 0 0 Z " fill="#FFB900" transform="translate(22,22)"/>
<path d="M0 0 C6.93 0 13.86 0 21 0 C21 6.93 21 13.86 21 21 C14.07 21 7.14 21 0 21 C0 14.07 0 7.14 0 0 Z " fill="#7CBA00" transform="translate(22,0)"/>
<path d="M0 0 C6.93 0 13.86 0 21 0 C21 6.93 21 13.86 21 21 C14.07 21 7.14 21 0 21 C0 14.07 0 7.14 0 0 Z " fill="#F34E20" transform="translate(0,0)"/>
<path d="M0 0 C4 0 8 0 12 0 C12.33 0.99 12.66 1.98 13 3 C13.495 2.505 13.99 2.01 14.5 1.5 C17.96186051 -0.57711631 21.11805647 -0.80873824 25 0 C28.61010155 2.53475215 29.76871396 4.20495424 31 8.4375 C31 12.53094236 30.22004022 14.59065251 28 18 C23.96595353 20.68936431 20.73716389 20.7812165 16 20 C12.77125523 17.914769 11.32400471 16.45680312 10.48046875 12.6640625 C10.21666871 10.43407283 10.05378002 8.24409336 10 6 C8.68 6.33 7.36 6.66 6 7 C5.67 11.29 5.34 15.58 5 20 C3.35 20 1.7 20 0 20 C0 13.4 0 6.8 0 0 Z M18 5 C15.43312633 8.8503105 16.16711276 10.58569763 17 15 C19.35367713 15.6878236 19.35367713 15.6878236 22 16 C22.99 15.34 23.98 14.68 25 14 C25.41666667 10.5 25.41666667 10.5 25 7 C23.17084359 4.76154985 23.17084359 4.76154985 20.5 4.6875 C19.675 4.790625 18.85 4.89375 18 5 Z " fill="#737373" transform="translate(112,15)"/>
<path d="M0 0 C0.33 1.32 0.66 2.64 1 4 C2.65 4 4.3 4 6 4 C6 5.65 6 7.3 6 9 C7.32 9 8.64 9 10 9 C10 10.65 10 12.3 10 14 C8.68 14 7.36 14 6 14 C6.33 17.3 6.66 20.6 7 24 C7.99 24 8.98 24 10 24 C10 25.65 10 27.3 10 29 C6.625 29.125 6.625 29.125 3 29 C1 27 1 27 0.8046875 23.9609375 C0.82789063 22.77757813 0.85109375 21.59421875 0.875 20.375 C0.89304688 19.18648437 0.91109375 17.99796875 0.9296875 16.7734375 C0.95289063 15.85820312 0.97609375 14.94296875 1 14 C-0.98 14 -2.96 14 -5 14 C-5 18.95 -5 23.9 -5 29 C-6.65 29 -8.3 29 -10 29 C-10 24.05 -10 19.1 -10 14 C-10.99 14 -11.98 14 -13 14 C-13 12.35 -13 10.7 -13 9 C-12.01 9 -11.02 9 -10 9 C-10.103125 8.2575 -10.20625 7.515 -10.3125 6.75 C-10 4 -10 4 -7.8125 1.6875 C-4.82698671 -0.10380798 -3.4027576 -0.38888658 0 0 Z M-4 5 C-4.33 6.32 -4.66 7.64 -5 9 C-3.02 9 -1.04 9 1 9 C0.67 7.68 0.34 6.36 0 5 C-1.32 5 -2.64 5 -4 5 Z " fill="#737373" transform="translate(190,6)"/>
<path d="M0 0 C2.95767754 1.05161868 4.44912594 1.88315945 5.85546875 4.734375 C7.05068106 8.47212985 7.26792723 11.19407823 5.8125 14.875 C4 18 4 18 1 20 C-3.63278267 20.82418418 -7.02726907 20.59554955 -11.0625 18.125 C-13.78240438 13.73805744 -14.15390567 10.02773185 -13 5 C-9.91536343 0.11237163 -5.48913451 -0.79841957 0 0 Z M-8 7 C-8.28602162 11.14509433 -8.28602162 11.14509433 -7 15 C-4.6272914 15.92466753 -4.6272914 15.92466753 -2 16 C-0.04374022 15.04451019 -0.04374022 15.04451019 1 13 C1.4167552 9.95788569 1.4167552 9.95788569 1 7 C-0.82703227 4.7508092 -0.82703227 4.7508092 -3.5 4.75 C-6.17296773 4.7508092 -6.17296773 4.7508092 -8 7 Z " fill="#727272" transform="translate(171,15)"/>
<path d="M0 0 C1 1 1 1 1.0625 3.5625 C1.041875 4.366875 1.02125 5.17125 1 6 C-1.31 5.67 -3.62 5.34 -6 5 C-5.10176976 7.3411437 -5.10176976 7.3411437 -2 8.25 C1 10 1 10 2.125 12.9375 C2 16 2 16 0.625 18.375 C-3.18723606 20.73495566 -6.62916748 20.33621789 -11 20 C-11.5534764 17.92446352 -12 16.15634036 -12 14 C-9.36 14.33 -6.72 14.66 -4 15 C-6.297221 13.25728062 -8.59866729 11.60088848 -11 10 C-12 7.6875 -12 7.6875 -12 5 C-8.52470985 0.11287323 -5.87066029 -0.67738388 0 0 Z " fill="#737373" transform="translate(155,15)"/>
<path d="M0 0 C0.66 0.33 1.32 0.66 2 1 C2 2.65 2 4.3 2 6 C0.700625 5.979375 -0.59875 5.95875 -1.9375 5.9375 C-3.29165633 5.91600546 -4.64756083 5.92851801 -6 6 C-7.41577477 7.18424326 -7.41577477 7.18424326 -7.0625 10.5625 C-7.041875 11.696875 -7.02125 12.83125 -7 14 C-3.62182575 14.84454356 -1.32534757 15.10844919 2 14 C2 15.65 2 17.3 2 19 C-1.50317094 20.75158547 -5.18694726 20.6837198 -9 20 C-12.68446332 16.91708171 -13.86092992 15.15229497 -14.4375 10.375 C-13.86171307 5.93321511 -13.32402485 4.05921988 -9.8125 1.25 C-6.34123295 -0.29278536 -3.76193131 -0.28391934 0 0 Z " fill="#737373" transform="translate(108,15)"/>
<path d="M0 0 C1.65 0 3.3 0 5 0 C5 6.6 5 13.2 5 20 C3.35 20 1.7 20 0 20 C0 13.4 0 6.8 0 0 Z " fill="#737373" transform="translate(87,15)"/>
<path d="M0 0 C1.65 0 3.3 0 5 0 C5.33 1.32 5.66 2.64 6 4 C4.02 4.99 4.02 4.99 2 6 C1.01 5.34 0.02 4.68 -1 4 C-0.67 2.68 -0.34 1.36 0 0 Z " fill="#727272" transform="translate(87,8)"/>
</svg>
